<?xml version="1.0" standalone="no"?>
<!DOCTYPE svg PUBLIC "-//W3C//DTD SVG 20010904//EN"
 "http://www.w3.org/TR/2001/REC-SVG-20010904/DTD/svg10.dtd">
<svg version="1.0" xmlns="http://www.w3.org/2000/svg"
 width="547.000000pt" height="547.000000pt" viewBox="0 0 547.000000 547.000000"
 preserveAspectRatio="xMidYMid meet">
<metadata>
Created by potrace 1.14, written by Peter Selinger 2001-2017
</metadata>
<g transform="translate(0.000000,547.000000) scale(0.100000,-0.100000)"
fill="#000000" stroke="none">
<path d="M3394 5452 c-30 -5 -71 -22 -179 -73 -55 -26 -143 -63 -195 -83 -52
-21 -138 -57 -190 -82 -52 -25 -113 -54 -135 -64 -22 -10 -98 -47 -170 -81
-71 -34 -132 -63 -135 -64 -3 0 -47 -22 -97 -48 -51 -26 -93 -44 -93 -41 0 9
83 84 93 84 5 0 15 6 23 14 7 8 19 16 26 19 7 2 9 8 5 13 -10 10 -56 -17 -139
-83 -62 -49 -73 -62 -69 -85 0 -4 -6 -5 -14 -2 -12 5 -10 12 8 37 12 18 33 41
46 52 13 11 34 31 45 44 51 58 208 212 278 273 77 66 93 105 21 51 -79 -60
-314 -289 -507 -494 -76 -80 -146 -139 -166 -139 -5 0 -10 -4 -10 -10 0 -5 -7
-10 -15 -10 -8 0 -15 -3 -15 -8 0 -4 -30 -30 -68 -59 -37 -28 -79 -62 -94 -75
-14 -13 -45 -38 -67 -56 -23 -18 -39 -37 -36 -42 5 -8 -218 -158 -270 -182
-18 -8 -24 -16 -19 -27 4 -9 8 -47 10 -86 2 -38 6 -88 9 -110 3 -22 8 -60 12
-85 8 -61 7 -772 -1 -805 -6 -22 -9 -24 -26 -15 -11 6 -20 9 -20 7 0 -3 -26 2
-58 9 -82 19 -125 18 -139 -5 -9 -15 -8 -23 4 -41 9 -12 20 -38 25 -59 15 -61
20 -85 23 -101 1 -8 5 -22 8 -30 17 -41 36 -100 31 -100 -2 0 0 -9 6 -20 6
-11 15 -41 20 -67 5 -27 16 -65 24 -85 9 -21 16 -40 16 -43 1 -4 13 -34 57
-135 8 -19 19 -43 24 -52 5 -10 9 -22 9 -27 0 -6 12 -36 28 -69 30 -66 21 -64
121 -19 43 20 44 20 55 1 6 -10 11 -21 12 -24 0 -3 11 -27 23 -55 26 -56 42
-97 43 -105 0 -16 86 -168 103 -182 11 -10 50 -32 88 -50 37 -17 67 -35 67
-40 0 -4 5 -8 10 -8 6 0 21 -9 32 -20 12 -11 37 -25 55 -32 18 -7 33 -14 33
-18 0 -3 -17 -16 -38 -29 -68 -45 -285 -259 -307 -304 l-15 -30 38 6 c21 4 66
20 101 38 36 17 101 42 145 55 45 14 95 29 111 34 17 5 46 12 65 15 19 3 50
10 69 15 19 5 37 7 40 5 6 -7 9 -5 -104 -64 -55 -30 -102 -56 -105 -60 -3 -3
-21 -15 -40 -25 -19 -11 -75 -48 -125 -84 -146 -105 -152 -115 -130 -204 22
-89 20 -82 60 -203 28 -83 38 -132 41 -198 4 -72 10 -97 35 -148 29 -56 30
-65 23 -122 -4 -34 -7 -65 -6 -69 1 -4 4 -29 7 -55 3 -27 8 -59 11 -73 3 -14
7 -68 10 -120 3 -52 6 -104 8 -115 3 -20 12 -20 907 -23 l904 -2 0 57 c1 56
12 232 19 283 10 77 19 121 25 125 4 2 6 70 4 151 -3 155 -1 162 48 224 24 30
29 47 33 115 15 212 29 305 47 305 5 0 9 9 9 20 0 11 -5 20 -10 20 -6 0 -16 5
-23 10 -31 27 -215 141 -234 146 -13 4 -23 9 -23 14 0 4 -15 15 -34 25 -49 26
-36 35 26 18 29 -8 64 -16 78 -19 14 -3 39 -9 55 -14 17 -5 45 -12 63 -15 17
-3 58 -17 89 -30 31 -14 60 -22 65 -17 8 8 -31 60 -92 122 -33 34 -66 60 -136
112 -17 13 -48 38 -68 56 l-37 32 53 53 c67 65 130 121 188 167 24 19 61 50
83 67 21 18 43 33 47 33 5 0 25 20 45 44 32 40 34 46 24 70 -9 20 -9 32 -1 49
6 12 14 33 16 47 3 14 15 53 27 87 19 54 25 62 43 58 30 -7 78 -16 103 -20 12
-2 26 -6 31 -9 12 -7 22 16 22 49 0 14 8 48 19 77 28 81 39 121 72 268 32 145
37 165 39 165 2 0 10 35 15 72 3 17 12 52 20 77 9 26 18 66 21 91 l4 45 -77
-4 c-43 -2 -96 -7 -119 -11 l-40 -7 0 46 c0 25 3 46 8 46 4 0 4 10 -1 23 -5
12 -12 76 -16 142 -4 66 -8 138 -10 160 -5 61 -7 145 -6 323 l1 163 25 -18
c13 -10 27 -26 30 -35 6 -18 139 -154 247 -253 36 -33 81 -82 99 -108 19 -27
50 -72 70 -100 21 -29 65 -98 100 -154 34 -57 69 -103 76 -103 9 0 11 5 6 13
-4 6 -8 17 -8 22 -3 38 -21 97 -43 140 -14 28 -31 61 -37 75 -7 14 -34 68 -60
120 -25 52 -70 137 -100 188 -30 51 -57 103 -61 115 -4 12 -17 38 -28 57 -12
19 -37 69 -55 110 -75 168 -164 332 -189 348 -32 21 -115 56 -217 93 -158 56
-297 114 -366 154 -24 13 -49 25 -56 25 -6 0 -40 13 -75 28 -35 16 -83 37
-108 47 -25 10 -49 22 -54 26 -11 9 67 45 209 95 39 14 77 28 85 31 16 6 32
11 53 16 6 1 17 5 22 9 6 3 49 16 95 27 47 12 114 32 150 46 57 22 124 36 170
37 8 1 20 4 25 8 6 3 29 12 53 20 24 8 39 17 34 22 -17 17 -269 10 -407 -12
-153 -24 -350 -59 -372 -66 -14 -4 -23 -2 -23 5 0 6 9 11 19 11 11 0 22 4 25
9 3 5 26 12 51 15 24 4 47 11 50 17 8 12 0 11 -64 -6 -30 -8 -58 -12 -63 -9
-4 3 -8 1 -8 -4 0 -5 -28 -14 -63 -20 -62 -11 -128 -31 -255 -73 -35 -12 -66
-18 -70 -14 -4 3 20 31 53 61 33 30 105 97 160 148 55 52 122 114 149 138 l49
45 -45 -1 c-24 -1 -53 -2 -64 -4z m63 -323 c1 -11 -3 -16 -11 -13 -16 6 -17
31 -1 31 6 0 12 -8 12 -18z m-65 -21 c-7 -7 -12 -8 -12 -2 0 6 3 14 7 17 3 4
9 5 12 2 2 -3 -1 -11 -7 -17z m906 -1037 c99 -118 150 -186 141 -190 -12 -4
-162 153 -181 188 -7 14 -25 37 -40 51 -15 14 -30 39 -33 55 -7 29 -6 29 34
-15 23 -25 59 -65 79 -89z"/>
</g>
</svg>
